<svg width="100" height="100" viewBox="0 0 100 100" fill="none" xmlns="http://www.w3.org/2000/svg">
<rect width="100" height="100" rx="50" fill="#FF4A22"/>
<g clip-path="url(#clip0_2103_2367)">
<path d="M50 36.5C46.8922 36.5 44.375 39.0172 44.375 42.125V45.5H61.25C63.732 45.5 65.75 47.518 65.75 50V63.5C65.75 65.982 63.732 68 61.25 68H38.75C36.268 68 34.25 65.982 34.25 63.5V50C34.25 47.518 36.268 45.5 38.75 45.5H39.875V42.125C39.875 36.5352 44.4102 32 50 32C54.043 32 57.5234 34.3695 59.1477 37.7867C59.682 38.9117 59.2039 40.2547 58.0789 40.782C56.9539 41.3094 55.6109 40.8383 55.0836 39.7133C54.1766 37.8078 52.243 36.5 50 36.5ZM52.25 59C53.4945 59 54.5 57.9945 54.5 56.75C54.5 55.5055 53.4945 54.5 52.25 54.5H47.75C46.5055 54.5 45.5 55.5055 45.5 56.75C45.5 57.9945 46.5055 59 47.75 59H52.25Z" fill="white"/>
</g>
<defs>
<clipPath id="clip0_2103_2367">
<rect width="31.5" height="36" fill="white" transform="translate(34.25 32)"/>
</clipPath>
</defs>
</svg>
