<svg width="36" height="36" viewBox="0 0 36 36" fill="none" xmlns="http://www.w3.org/2000/svg">
<path d="M35.9999 18.4318C35.9999 17.2161 35.8798 15.9612 35.6798 14.7848H18.355V21.7258H28.2777C27.8776 23.9611 26.5573 25.9218 24.5967 27.1767L30.5184 31.6864C33.9993 28.51 35.9999 23.8827 35.9999 18.4318Z" fill="#4280EF"/>
<path d="M18.3552 36C23.3166 36 27.4778 34.3922 30.5186 31.6471L24.597 27.1766C22.9565 28.2747 20.8359 28.9021 18.3552 28.9021C13.5539 28.9021 9.51278 25.7257 8.03237 21.4905L1.95068 26.0786C5.07155 32.1569 11.3933 36 18.3552 36Z" fill="#34A353"/>
<path d="M8.03223 21.4513C7.27202 19.2161 7.27202 16.7847 8.03223 14.5495L1.95054 9.92212C-0.650181 15.0201 -0.650181 21.0199 1.95054 26.0787L8.03223 21.4513Z" fill="#F6B704"/>
<path d="M18.3552 7.1378C20.956 7.09859 23.5167 8.07896 25.3972 9.84363L30.6387 4.66726C27.3177 1.6085 22.9165 -0.0385305 18.3552 0.000684414C11.3933 0.000684414 5.07155 3.84375 1.95068 9.92206L8.03237 14.5494C9.51278 10.275 13.5539 7.1378 18.3552 7.1378Z" fill="#E54335"/>
</svg>
