<svg width="100" height="100" viewBox="0 0 100 100" fill="none" xmlns="http://www.w3.org/2000/svg">
<rect width="100" height="100" rx="50" fill="#7A5CFA"/>
<path d="M55.625 56.75C62.4594 56.75 68 51.2094 68 44.375C68 37.5406 62.4594 32 55.625 32C48.7906 32 43.25 37.5406 43.25 44.375C43.25 45.6898 43.4539 46.9625 43.8336 48.1508L32.4922 59.4922C32.1758 59.8086 32 60.2375 32 60.6875V66.3125C32 67.2477 32.7523 68 33.6875 68H39.3125C40.2477 68 41 67.2477 41 66.3125V63.5H43.8125C44.7477 63.5 45.5 62.7477 45.5 61.8125V59H48.3125C48.7625 59 49.1914 58.8242 49.5078 58.5078L51.8492 56.1664C53.0375 56.5461 54.3102 56.75 55.625 56.75ZM58.4375 38.75C59.1834 38.75 59.8988 39.0463 60.4262 39.5738C60.9537 40.1012 61.25 40.8166 61.25 41.5625C61.25 42.3084 60.9537 43.0238 60.4262 43.5512C59.8988 44.0787 59.1834 44.375 58.4375 44.375C57.6916 44.375 56.9762 44.0787 56.4488 43.5512C55.9213 43.0238 55.625 42.3084 55.625 41.5625C55.625 40.8166 55.9213 40.1012 56.4488 39.5738C56.9762 39.0463 57.6916 38.75 58.4375 38.75Z" fill="white"/>
</svg>
