<svg width="37" height="36" viewBox="0 0 37 36" fill="none" xmlns="http://www.w3.org/2000/svg">
<path fill-rule="evenodd" clip-rule="evenodd" d="M36.2069 18C36.2069 27.6649 28.1016 35.5 18.1034 35.5C8.10525 35.5 0 27.6649 0 18C0 8.33508 8.10525 0.5 18.1034 0.5C28.1016 0.5 36.2069 8.33508 36.2069 18Z" fill="#778699"/>
<path fill-rule="evenodd" clip-rule="evenodd" d="M35.3301 18C35.3301 27.1968 27.6174 34.6523 18.1035 34.6523C8.58956 34.6523 0.876953 27.1968 0.876953 18C0.876953 8.80318 8.58956 1.34766 18.1035 1.34766C27.6174 1.34766 35.3301 8.80318 35.3301 18Z" fill="white"/>
<path fill-rule="evenodd" clip-rule="evenodd" d="M29.7577 10.7813L20.0695 19.9415V31.3301C20.0695 31.5352 19.1502 31.6993 18.1036 31.7129C17.0994 31.6993 16.1376 31.5352 16.1376 31.3301V19.9415L6.4495 10.7813C6.2939 10.6309 6.78894 9.91997 7.55268 9.18169C8.31641 8.4434 9.06599 7.96491 9.20742 8.11528L18.0894 16.4962L26.9714 8.11528C27.127 7.96491 27.8625 8.4434 28.6262 9.18169C29.39 9.91997 29.8991 10.6309 29.7577 10.7813Z" fill="#EC1C24"/>
</svg>
